<svg xmlns="http://www.w3.org/2000/svg" xmlns:xlink="http://www.w3.org/1999/xlink" width="1264" height="473" viewBox="0 0 1264 473">
    <defs>
        <circle id="a" cx="236.5" cy="236.5" r="236.5"/>
    </defs>
    <g fill="none" fill-rule="evenodd">
        <mask id="b" fill="#fff">
            <use xlink:href="#a"/>
        </mask>
        <use fill="#A1A1A1" xlink:href="#a"/>
        <circle cx="245.219" cy="216.156" r="236.5" fill="#AEAEAE" mask="url(#b)"/>
        <g fill="#FFF" fill-rule="nonzero">
            <path d="M396.671 229.216l5.702 7.21-5.702 7.209c-.67.849-16.751 21.023-44.32 41.277-36.842 27.067-76.928 41.374-115.926 41.374-38.997 0-79.083-14.307-115.926-41.374-27.569-20.254-43.65-40.428-44.32-41.277l-5.701-7.21 5.7-7.209c.67-.849 16.752-21.023 44.32-41.277 36.843-27.067 76.93-41.374 115.926-41.374 38.999 0 79.085 14.307 115.926 41.374 27.57 20.255 43.651 40.428 44.321 41.277zm-29.333 1.033c-.549-.693-13.715-17.167-36.288-33.708-30.164-22.105-62.985-33.788-94.914-33.788-31.929 0-64.75 11.683-94.914 33.788-22.572 16.54-35.739 33.015-36.288 33.708l-4.667 5.887 4.668 5.888c.549.693 13.715 17.168 36.287 33.71 30.165 22.103 62.986 33.787 94.914 33.787 31.93 0 64.75-11.684 94.914-33.788 22.573-16.54 35.739-33.016 36.288-33.709l4.668-5.888-4.668-5.887z"/>
            <path d="M289.3 239.477c-3.457-4.519-8.674-7.622-15.651-9.309 8.884-4.58 12.789-12.353 11.717-23.321-.359-3.977-1.446-7.424-3.266-10.346-1.82-2.922-4.277-5.272-7.38-7.05-3.1-1.779-6.47-3.133-10.106-4.067-3.636-.934-7.81-1.612-12.521-2.034v-22.777H238.32v22.145c-2.384 0-6.021.06-10.91.18v-22.325h-13.773v22.777c-1.968.06-4.86.092-8.675.092l-18.96-.092v14.824h9.927c4.531 0 7.184 2.05 7.96 6.146v25.942c.596 0 1.073.03 1.43.09h-1.43v36.335c-.477 3.072-2.206 4.61-5.188 4.61h-9.925l-2.773 16.54h17.887c1.133 0 2.771.016 4.919.043 2.146.03 3.755.046 4.828.046v23.048h13.776v-22.777c2.503.061 6.14.09 10.91.09v22.687h13.772v-23.048c4.89-.24 9.227-.69 13.012-1.356a52.526 52.526 0 0 0 10.866-3.12c3.457-1.415 6.348-3.178 8.673-5.287 2.327-2.107 4.248-4.79 5.77-8.045 1.519-3.254 2.489-7.02 2.905-11.3.778-8.373-.564-14.821-4.022-19.341zm-61.621-40.311c.418 0 1.595-.016 3.533-.046 1.938-.031 3.548-.06 4.83-.091 1.282-.03 3.01.045 5.188.226 2.176.181 4.009.423 5.5.723 1.49.301 3.13.798 4.917 1.491 1.79.693 3.22 1.537 4.293 2.53 1.074.995 1.983 2.26 2.727 3.798.746 1.536 1.119 3.298 1.119 5.287 0 1.687-.268 3.224-.804 4.61-.535 1.386-1.342 2.546-2.414 3.48a24.474 24.474 0 0 1-3.31 2.441c-1.132.693-2.58 1.25-4.338 1.672a88.63 88.63 0 0 1-4.604.994c-1.312.241-2.95.407-4.919.497-1.968.09-3.459.152-4.472.181-1.014.03-2.4.03-4.16 0-1.76-.03-2.786-.045-3.085-.045v-27.749h-.001zm37.608 61.552c-.567 1.386-1.297 2.592-2.19 3.617-.896 1.023-2.074 1.928-3.534 2.71a30.138 30.138 0 0 1-4.247 1.898c-1.372.484-3.027.904-4.963 1.266-1.94.362-3.639.617-5.1.769-1.46.15-3.204.27-5.232.362-2.026.088-3.607.134-4.74.134s-2.564-.016-4.293-.046c-1.73-.028-2.832-.043-3.31-.043v-30.552c.477 0 1.893-.03 4.249-.09 2.356-.061 4.277-.09 5.768-.09 1.49 0 3.548.09 6.173.271 2.621.18 4.828.45 6.618.811 1.788.363 3.74.92 5.857 1.673 2.116.753 3.831 1.672 5.143 2.756 1.312 1.087 2.415 2.47 3.309 4.158.896 1.687 1.343 3.616 1.343 5.786 0 1.689-.283 3.223-.85 4.61z"/>
        </g>
        <g fill-rule="nonzero">
            <path fill="#A1A1A1" d="M628.44 235.81c7.973 4.593 11.96 11.527 11.96 20.8 0 7.713-2.73 14.04-8.19 18.98-5.46 4.94-12.177 7.41-20.15 7.41h-38.61v-91h35.88c7.8 0 14.365 2.405 19.695 7.215 5.33 4.81 7.995 10.942 7.995 18.395 0 7.54-2.86 13.607-8.58 18.2zm-19.11-27.04h-17.94v20.02h17.94c2.773 0 5.092-.953 6.955-2.86 1.863-1.907 2.795-4.29 2.795-7.15 0-2.86-.91-5.243-2.73-7.15-1.82-1.907-4.16-2.86-7.02-2.86zm2.73 57.46c3.033 0 5.547-1.018 7.54-3.055 1.993-2.037 2.99-4.615 2.99-7.735 0-3.033-.997-5.568-2.99-7.605-1.993-2.037-4.507-3.055-7.54-3.055h-20.67v21.45h20.67zM712.29 192v17.16h-24.57V283h-17.94v-73.84h-24.44V192h66.95zm53.17 92.82c-13.693 0-25.003-4.55-33.93-13.65-8.927-9.1-13.39-20.323-13.39-33.67 0-13.433 4.463-24.678 13.39-33.735 8.927-9.057 20.237-13.585 33.93-13.585 8.233 0 15.838 1.928 22.815 5.785 6.977 3.857 12.415 9.078 16.315 15.665l-15.47 8.97c-2.253-4.073-5.46-7.258-9.62-9.555-4.16-2.297-8.84-3.445-14.04-3.445-8.84 0-15.968 2.773-21.385 8.32-5.417 5.547-8.125 12.74-8.125 21.58 0 8.753 2.708 15.903 8.125 21.45 5.417 5.547 12.545 8.32 21.385 8.32 5.2 0 9.902-1.148 14.105-3.445 4.203-2.297 7.388-5.438 9.555-9.425l15.47 8.97c-3.9 6.587-9.317 11.808-16.25 15.665-6.933 3.857-14.56 5.785-22.88 5.785zM908.33 283h-19.5l-23.66-29.51V283H848.4v-91h16.77v54.6l22.36-28.6h20.02l-26.13 32.11L908.33 283zm22.49-25.61c2.253 8.147 8.363 12.22 18.33 12.22 6.413 0 11.267-2.167 14.56-6.5l13.52 7.8c-6.413 9.273-15.86 13.91-28.34 13.91-10.747 0-19.37-3.25-25.87-9.75s-9.75-14.69-9.75-24.57c0-9.793 3.207-17.962 9.62-24.505 6.413-6.543 14.647-9.815 24.7-9.815 9.533 0 17.398 3.293 23.595 9.88 6.197 6.587 9.295 14.733 9.295 24.44 0 2.167-.217 4.463-.65 6.89h-49.01zm-.26-13h33.15c-.953-4.42-2.925-7.713-5.915-9.88-2.99-2.167-6.392-3.25-10.205-3.25-4.507 0-8.233 1.148-11.18 3.445-2.947 2.297-4.897 5.525-5.85 9.685zm75.79 13c2.253 8.147 8.363 12.22 18.33 12.22 6.413 0 11.267-2.167 14.56-6.5l13.52 7.8c-6.413 9.273-15.86 13.91-28.34 13.91-10.747 0-19.37-3.25-25.87-9.75s-9.75-14.69-9.75-24.57c0-9.793 3.207-17.962 9.62-24.505 6.413-6.543 14.647-9.815 24.7-9.815 9.533 0 17.398 3.293 23.595 9.88 6.197 6.587 9.295 14.733 9.295 24.44 0 2.167-.217 4.463-.65 6.89h-49.01zm-.26-13h33.15c-.953-4.42-2.925-7.713-5.915-9.88-2.99-2.167-6.392-3.25-10.205-3.25-4.507 0-8.233 1.148-11.18 3.445-2.947 2.297-4.897 5.525-5.85 9.685zm99.45-28.21c8.753 0 16.228 3.315 22.425 9.945 6.197 6.63 9.295 14.755 9.295 24.375s-3.098 17.745-9.295 24.375c-6.197 6.63-13.672 9.945-22.425 9.945-9.1 0-16.12-3.163-21.06-9.49V309h-16.77v-91h16.77v7.67c4.94-6.327 11.96-9.49 21.06-9.49zm-15.99 47.58c3.38 3.38 7.67 5.07 12.87 5.07 5.2 0 9.512-1.712 12.935-5.135s5.135-7.822 5.135-13.195-1.712-9.772-5.135-13.195-7.735-5.135-12.935-5.135-9.49 1.712-12.87 5.135c-3.38 3.423-5.07 7.822-5.07 13.195s1.69 9.793 5.07 13.26zm73.71-6.37c2.253 8.147 8.363 12.22 18.33 12.22 6.413 0 11.267-2.167 14.56-6.5l13.52 7.8c-6.413 9.273-15.86 13.91-28.34 13.91-10.747 0-19.37-3.25-25.87-9.75s-9.75-14.69-9.75-24.57c0-9.793 3.207-17.962 9.62-24.505 6.413-6.543 14.647-9.815 24.7-9.815 9.533 0 17.398 3.293 23.595 9.88 6.197 6.587 9.295 14.733 9.295 24.44 0 2.167-.217 4.463-.65 6.89h-49.01zm-.26-13h33.15c-.953-4.42-2.925-7.713-5.915-9.88-2.99-2.167-6.392-3.25-10.205-3.25-4.507 0-8.233 1.148-11.18 3.445-2.947 2.297-4.897 5.525-5.85 9.685zm78.39-15.21c1.56-4.16 4.138-7.28 7.735-9.36 3.597-2.08 7.605-3.12 12.025-3.12v18.72c-5.113-.607-9.685.433-13.715 3.12-4.03 2.687-6.045 7.15-6.045 13.39V283h-16.77v-65h16.77v11.18z"/>
            <path fill="#AEAEAE" d="M628.44 230.81c7.973 4.593 11.96 11.527 11.96 20.8 0 7.713-2.73 14.04-8.19 18.98-5.46 4.94-12.177 7.41-20.15 7.41h-38.61v-91h35.88c7.8 0 14.365 2.405 19.695 7.215 5.33 4.81 7.995 10.942 7.995 18.395 0 7.54-2.86 13.607-8.58 18.2zm-19.11-27.04h-17.94v20.02h17.94c2.773 0 5.092-.953 6.955-2.86 1.863-1.907 2.795-4.29 2.795-7.15 0-2.86-.91-5.243-2.73-7.15-1.82-1.907-4.16-2.86-7.02-2.86zm2.73 57.46c3.033 0 5.547-1.018 7.54-3.055 1.993-2.037 2.99-4.615 2.99-7.735 0-3.033-.997-5.568-2.99-7.605-1.993-2.037-4.507-3.055-7.54-3.055h-20.67v21.45h20.67zM712.29 187v17.16h-24.57V278h-17.94v-73.84h-24.44V187h66.95zm53.17 92.82c-13.693 0-25.003-4.55-33.93-13.65-8.927-9.1-13.39-20.323-13.39-33.67 0-13.433 4.463-24.678 13.39-33.735 8.927-9.057 20.237-13.585 33.93-13.585 8.233 0 15.838 1.928 22.815 5.785 6.977 3.857 12.415 9.078 16.315 15.665l-15.47 8.97c-2.253-4.073-5.46-7.258-9.62-9.555-4.16-2.297-8.84-3.445-14.04-3.445-8.84 0-15.968 2.773-21.385 8.32-5.417 5.547-8.125 12.74-8.125 21.58 0 8.753 2.708 15.903 8.125 21.45 5.417 5.547 12.545 8.32 21.385 8.32 5.2 0 9.902-1.148 14.105-3.445 4.203-2.297 7.388-5.438 9.555-9.425l15.47 8.97c-3.9 6.587-9.317 11.808-16.25 15.665-6.933 3.857-14.56 5.785-22.88 5.785zM908.33 278h-19.5l-23.66-29.51V278H848.4v-91h16.77v54.6l22.36-28.6h20.02l-26.13 32.11L908.33 278zm22.49-25.61c2.253 8.147 8.363 12.22 18.33 12.22 6.413 0 11.267-2.167 14.56-6.5l13.52 7.8c-6.413 9.273-15.86 13.91-28.34 13.91-10.747 0-19.37-3.25-25.87-9.75s-9.75-14.69-9.75-24.57c0-9.793 3.207-17.962 9.62-24.505 6.413-6.543 14.647-9.815 24.7-9.815 9.533 0 17.398 3.293 23.595 9.88 6.197 6.587 9.295 14.733 9.295 24.44 0 2.167-.217 4.463-.65 6.89h-49.01zm-.26-13h33.15c-.953-4.42-2.925-7.713-5.915-9.88-2.99-2.167-6.392-3.25-10.205-3.25-4.507 0-8.233 1.148-11.18 3.445-2.947 2.297-4.897 5.525-5.85 9.685zm75.79 13c2.253 8.147 8.363 12.22 18.33 12.22 6.413 0 11.267-2.167 14.56-6.5l13.52 7.8c-6.413 9.273-15.86 13.91-28.34 13.91-10.747 0-19.37-3.25-25.87-9.75s-9.75-14.69-9.75-24.57c0-9.793 3.207-17.962 9.62-24.505 6.413-6.543 14.647-9.815 24.7-9.815 9.533 0 17.398 3.293 23.595 9.88 6.197 6.587 9.295 14.733 9.295 24.44 0 2.167-.217 4.463-.65 6.89h-49.01zm-.26-13h33.15c-.953-4.42-2.925-7.713-5.915-9.88-2.99-2.167-6.392-3.25-10.205-3.25-4.507 0-8.233 1.148-11.18 3.445-2.947 2.297-4.897 5.525-5.85 9.685zm99.45-28.21c8.753 0 16.228 3.315 22.425 9.945 6.197 6.63 9.295 14.755 9.295 24.375s-3.098 17.745-9.295 24.375c-6.197 6.63-13.672 9.945-22.425 9.945-9.1 0-16.12-3.163-21.06-9.49V304h-16.77v-91h16.77v7.67c4.94-6.327 11.96-9.49 21.06-9.49zm-15.99 47.58c3.38 3.38 7.67 5.07 12.87 5.07 5.2 0 9.512-1.712 12.935-5.135s5.135-7.822 5.135-13.195-1.712-9.772-5.135-13.195-7.735-5.135-12.935-5.135-9.49 1.712-12.87 5.135c-3.38 3.423-5.07 7.822-5.07 13.195s1.69 9.793 5.07 13.26zm73.71-6.37c2.253 8.147 8.363 12.22 18.33 12.22 6.413 0 11.267-2.167 14.56-6.5l13.52 7.8c-6.413 9.273-15.86 13.91-28.34 13.91-10.747 0-19.37-3.25-25.87-9.75s-9.75-14.69-9.75-24.57c0-9.793 3.207-17.962 9.62-24.505 6.413-6.543 14.647-9.815 24.7-9.815 9.533 0 17.398 3.293 23.595 9.88 6.197 6.587 9.295 14.733 9.295 24.44 0 2.167-.217 4.463-.65 6.89h-49.01zm-.26-13h33.15c-.953-4.42-2.925-7.713-5.915-9.88-2.99-2.167-6.392-3.25-10.205-3.25-4.507 0-8.233 1.148-11.18 3.445-2.947 2.297-4.897 5.525-5.85 9.685zm78.39-15.21c1.56-4.16 4.138-7.28 7.735-9.36 3.597-2.08 7.605-3.12 12.025-3.12v18.72c-5.113-.607-9.685.433-13.715 3.12-4.03 2.687-6.045 7.15-6.045 13.39V278h-16.77v-65h16.77v11.18z"/>
        </g>
    </g>
</svg>
