<svg xmlns="http://www.w3.org/2000/svg" width="90" height="90" viewBox="0 0 90 90">
    <g fill="#AEAEAE" fill-rule="nonzero">
        <path d="M89.314 90H0V0h89.314v90zM2.057 87.828h85.149V2.155H2.057v85.673z"/>
        <path d="M19.663 12.834V39.15s9.428-2.432 9.634-13.457c-.626-10.627-9.634-12.877-9.634-12.877m2.76 21.773V17.394A11.03 11.03 0 0 1 26.538 26a11.03 11.03 0 0 1-4.115 8.607M34.757 12.834v18.432h-4.62l1.714 2.77H34.8v2.06c.044 1.698 1.356 3.086 3.034 3.21h4.852v-2.917h-4.543s-.643-.138-.643-.649v-1.73h5.143v-2.77h-5.229V15.603h5.229v-2.77h-7.886zM56.52 17.334c-.037-2.47-2.01-4.463-4.457-4.5-4.38.19-4.466 4.56-4.466 4.56v17.308c.037 2.473 2.016 4.467 4.466 4.5 2.461 0 4.457-2.015 4.457-4.5v-.623h-2.743s.352 2.284-1.714 2.354a1.723 1.723 0 0 1-1.714-1.731V17.394c0-.956.767-1.73 1.714-1.73s1.714.774 1.714 1.73l2.743-.06zM65.4 12.834c-4.371.19-4.457 4.56-4.457 4.56v17.308c.037 2.471 2.01 4.467 4.457 4.509 2.45-.042 4.424-2.036 4.466-4.51V17.395s-.086-4.327-4.466-4.56zm1.714 21.825c0 .956-.767 1.73-1.714 1.73a1.723 1.723 0 0 1-1.714-1.73V17.35c0-.956.767-1.73 1.714-1.73a1.766 1.766 0 0 1 1.714 1.73v17.308zM37.286 43.338c-4.372.19-4.457 4.561-4.457 4.561v17.308c.036 2.47 2.01 4.467 4.457 4.508 2.449-.041 4.424-2.036 4.465-4.508V47.899s-.094-4.327-4.465-4.56zM39 65.163c0 .956-.768 1.731-1.714 1.731a1.723 1.723 0 0 1-1.715-1.73V47.855c0-.956.768-1.731 1.715-1.731.946 0 1.714.775 1.714 1.73v17.308zM50.914 43.338c-4.371.19-4.457 4.561-4.457 4.561v17.308c.041 2.469 2.012 4.462 4.457 4.508 2.448-.041 4.42-2.037 4.457-4.508V47.899s-.085-4.327-4.457-4.56zm1.715 21.825c0 .956-.768 1.731-1.715 1.731a1.723 1.723 0 0 1-1.714-1.73V47.855a1.766 1.766 0 0 1 1.714-1.731c.947 0 1.715.775 1.715 1.73v17.308zM26.203 61.823a10.792 10.792 0 0 0 2.571-6.992c0-9.52-8.991-11.493-8.991-11.493v18.433h-3.746l1.714 2.77h2.075v5.131h2.751V64.54h2.76c.669 0 .643.788.643.788v4.327h2.743v-5.002a3.08 3.08 0 0 0-2.469-2.847m-3.814 0V47.804a8.46 8.46 0 0 1 3.68 6.992 8.46 8.46 0 0 1-3.68 6.992M59.649 69.672v-26.48l5.16 8.376 5.142-8.23v26.334l-2.742.017-.009-16.667-2.4 3.747-2.4-3.963v16.866zM19.766 73.523h.574v5.192h2.203v.563h-2.777zM29.486 73.376a2.968 2.968 0 0 1 2.177.865c.57.571.88 1.354.857 2.164a3.044 3.044 0 0 1-.876 2.156 2.986 2.986 0 0 1-2.133.89 2.917 2.917 0 0 1-2.151-.865 2.931 2.931 0 0 1-.857-2.138 3.078 3.078 0 0 1 .403-1.54 2.953 2.953 0 0 1 2.571-1.523l.009-.009zm0 .562a2.465 2.465 0 0 0-2.1 1.238 2.511 2.511 0 0 0-.317 1.263c-.01.652.241 1.28.696 1.742.455.463 1.075.72 1.72.716.434.002.86-.111 1.235-.329.356-.208.651-.506.857-.865.214-.386.323-.822.317-1.264a2.45 2.45 0 0 0-.317-1.246 2.394 2.394 0 0 0-.857-.865 2.401 2.401 0 0 0-1.234-.39zM36.943 79.313v-5.79h.128l3.815 4.44v-4.44h.6v5.79h-.129l-3.788-4.388v4.388zM46.123 79.313v-5.79h1.191a6.082 6.082 0 0 1 1.886.242c.534.187.991.546 1.303 1.022.32.518.484 1.12.471 1.73a3.07 3.07 0 0 1-.377 1.532c-.224.413-.56.752-.968.978a3.63 3.63 0 0 1-1.663.311l-1.843-.025zm.548-.546h.66a6.378 6.378 0 0 0 1.655-.147 1.948 1.948 0 0 0 1.02-.77c.252-.403.38-.873.368-1.35a2.475 2.475 0 0 0-.403-1.428c-.266-.399-.664-.69-1.122-.822a6.964 6.964 0 0 0-1.775-.164h-.403v4.681zM58.071 73.376a2.968 2.968 0 0 1 2.178.865 3.077 3.077 0 0 1 .633 3.309 3.026 3.026 0 0 1-2.768 1.884 2.917 2.917 0 0 1-2.151-.866 2.922 2.922 0 0 1-.857-2.137c-.006-.54.13-1.071.394-1.54a2.953 2.953 0 0 1 2.571-1.524v.009zm0 .562c-.425 0-.843.117-1.208.338a2.42 2.42 0 0 0-.857.865 2.511 2.511 0 0 0-.317 1.264c-.011.65.243 1.275.702 1.73.454.46 1.072.717 1.715.71.433.002.858-.111 1.234-.329.357-.205.653-.504.857-.865.216-.385.329-.82.326-1.263a2.459 2.459 0 0 0-.326-1.247c-.205-.36-.5-.658-.857-.865a2.4 2.4 0 0 0-1.243-.338h-.026zM65.554 79.313v-5.79h.129l3.814 4.44v-4.44h.566v5.79h-.129l-3.788-4.388v4.388z"/>
    </g>
</svg>
