<svg xmlns="http://www.w3.org/2000/svg" xmlns:xlink="http://www.w3.org/1999/xlink" width="152" height="38" viewBox="0 0 152 38">
    <defs>
        <path id="a" d="M0 .052h32.06v36.22H0z"/>
    </defs>
    <g fill="none" fill-rule="evenodd">
        <g transform="translate(0 .982)">
            <mask id="b" fill="#fff">
                <use xlink:href="#a"/>
            </mask>
            <path fill="#AEAEAE" fill-rule="nonzero" d="M28.754 11.287c-.58.303-.991.61-.658 1.354.076.168.023.397.023.599.001 3.242 0 6.483.002 9.725 0 .404.022.814-.123 1.194-.116.304.017.428.252.562.693.394 1.376.807 2.064 1.212.59.349.61.34.687-.35.007-.06.016-.12.017-.18.077-4.891.074-9.782-.012-14.672-.004-.22-.026-.444-.212-.662-.673.406-1.337.85-2.04 1.218zM4.728 18.062c0 1.026-.004 2.052.002 3.078.004.764.028 1.529.031 2.293.003.498.171.514.553.266a29.21 29.21 0 0 1 2.104-1.258c.558-.3.817-.59.772-1.349-.116-1.986-.055-3.983-.032-5.976.01-.912.358-1.74 1.12-2.229 1.896-1.214 3.822-2.385 5.844-3.378.25-.123.365-.235.359-.524-.018-.825-.006-1.65-.006-2.476 0-1.126-.005-1.135-.968-.575-2.809 1.635-5.613 3.278-8.42 4.916-.886.517-1.338 1.276-1.331 2.323.01 1.63.002 3.26.002 4.889h-.03zm9.664-16.538C10.465 3.818 6.536 6.11 2.608 8.402a4.047 4.047 0 0 0-.812.61c-.202.197-.181.306.065.44.596.323 1.198.64 1.762 1.015.518.344.95.496 1.393-.111.144-.198.412-.31.635-.44 2.773-1.622 5.551-3.233 8.32-4.862 1.304-.768 2.584-.782 3.893-.01 2.681 1.58 5.357 3.172 8.074 4.686.584.325.972 1.17 1.683 1 .647-.156 1.208-.676 1.805-1.038 1.058-.639 1.063-.647-.03-1.287-3.926-2.298-7.854-4.59-11.782-6.883-.508-.297-1.044-.495-1.613-.468-.605-.013-1.118.183-1.61.47zM.972 11.272C.969 15.865.974 20.457.967 25.05c-.002 1.27.554 2.193 1.625 2.818 3.894 2.273 7.794 4.536 11.68 6.822 1.158.682 2.264.703 3.432.016 3.903-2.298 7.82-4.569 11.731-6.853.19-.11.367-.241.544-.37.285-.206.38-.37-.027-.585a19.483 19.483 0 0 1-1.905-1.126c-.428-.292-.739-.357-1.098.096-.178.226-.466.373-.723.524-2.771 1.624-5.551 3.232-8.317 4.865-1.327.784-2.62.794-3.95.009a1445.988 1445.988 0 0 0-8.319-4.86c-1.29-.75-1.922-1.863-1.917-3.371.01-3.102.005-6.204.003-9.306 0-.543-.03-1.09.134-1.617.065-.207.042-.324-.16-.435-.85-.471-1.694-.958-2.538-1.439-.238.347-.19.698-.19 1.035zm26.164 2.097c.006-1.175-.478-2.035-1.503-2.612-1.304-.733-2.59-1.5-3.882-2.254-1.55-.904-3.1-1.812-4.653-2.711-.305-.176-.627-.38-.592.28.036.662.05 1.332-.003 1.992-.065.81-.028 1.504.97 1.652.019.002.035.02.052.03 1.637.954 3.279 1.9 4.908 2.868 1.01.601 1.5 1.522 1.5 2.705.004 1.813-.012 3.625.006 5.438.014 1.315-.544 2.27-1.662 2.92-1.518.88-3.037 1.761-4.547 2.656-1.112.66-2.214.682-3.332.022-1.1-.649-2.213-1.275-3.305-1.935-.748-.452-1.581-.778-2.184-1.452-.211-.235-.36-.02-.513.07-.774.454-1.542.92-2.31 1.383-.845.51-.85.552.015 1.059 2.822 1.654 5.649 3.3 8.474 4.95.906.53 1.805.528 2.714-.004 2.754-1.613 5.502-3.239 8.274-4.819 1.114-.635 1.602-1.542 1.578-2.812-.03-1.53-.007-3.062-.008-4.592 0-1.611-.006-3.223.003-4.834zm-4.234 1.86c-.003-.797-.371-1.379-1.046-1.773-1.586-.924-3.173-1.844-4.756-2.773-.723-.425-1.426-.41-2.146.015a584.431 584.431 0 0 1-4.706 2.74c-.724.418-1.095 1.052-1.103 1.875a298.029 298.029 0 0 0-.001 5.559c.007.8.355 1.434 1.054 1.843 1.6.937 3.204 1.87 4.806 2.806.679.396 1.36.412 2.04.017 1.622-.94 3.244-1.882 4.858-2.836.648-.383 1.002-.962 1-1.739v-2.838c0-.966.004-1.93 0-2.896zM0 25.739c.007-3.397.015-6.795.019-10.192.002-1.689-.006-3.377-.01-5.066.21-1.346.945-2.308 2.1-2.98C5.85 5.325 9.582 3.14 13.317.958c.155-.09.302-.192.453-.288 1.614-.914 3.153-.778 4.738.169C22.293 3.1 26.117 5.298 29.925 7.52c1.415.826 2.132 2.066 2.133 3.719.002 4.613.005 9.226-.002 13.84-.003 1.575-.666 2.806-2.016 3.6-3.99 2.347-7.99 4.677-11.992 7.003-1.354.787-2.737.784-4.09 0a3439.093 3439.093 0 0 1-11.942-6.967C.883 28.052.188 27.066 0 25.739z" mask="url(#b)"/>
        </g>
        <path fill="#AEAEAE" fill-rule="nonzero" d="M122.466 19.77c-.021-.22-.003-.443-.003-.664-.003-2.814 1.463-4.723 4.035-5.271 2.856-.609 5.591 1.42 5.907 4.358.19 1.773-.052 3.425-1.288 4.788-1.348 1.486-3.558 1.971-5.495 1.222-2.003-.776-2.956-2.337-3.156-4.433zm-48.073-1.267c.021.22.003.443.003.664.009 2.864-1.5 4.794-4.134 5.308-2.808.548-5.501-1.485-5.804-4.357-.187-1.771.038-3.428 1.272-4.794 1.355-1.5 3.541-1.987 5.491-1.241 2.005.767 2.966 2.324 3.172 4.42zm32.134-7.511c-.487-.007-.61.148-.583.61.036.642.03 1.29.001 1.933-.018.392.1.516.497.509 1.274-.025 2.55.023 3.824-.024.59-.022.767.12.762.749-.032 3.988-.01 7.977-.026 11.966-.001.435.084.612.553.581a14.852 14.852 0 0 1 1.971 0c.528.035.7-.103.696-.678-.028-3.968 0-7.937-.03-11.906-.005-.606.173-.73.732-.711 1.293.043 2.59 0 3.884.021.368.006.489-.105.474-.477-.027-.664-.035-1.331.002-1.994.024-.45-.108-.584-.563-.578-2.032.026-4.065.011-6.097.011s-4.065.017-6.097-.012zm-2.7 15.306c1.386-1.172 2.025-2.685 1.686-4.506-.42-2.263-1.989-3.384-4.064-3.907-.962-.242-1.951-.378-2.917-.613-.782-.19-1.312-.702-1.404-1.534-.093-.828.322-1.432 1.003-1.847a2.938 2.938 0 0 1 4.289 1.488c.1.267.18.41.496.303a45.054 45.054 0 0 1 2.163-.678c.265-.076.296-.185.222-.43-.25-.818-.603-1.571-1.202-2.193-2.347-2.435-6.815-2.286-8.99.31-.991 1.182-1.333 2.56-1.03 4.062.441 2.183 2.005 3.175 3.989 3.656.984.239 1.994.382 2.966.663.918.266 1.379.972 1.354 1.831-.024.838-.562 1.514-1.474 1.747-2.047.524-4.187-.315-4.564-2.544-.047-.273-.128-.359-.43-.263-.702.221-1.415.407-2.133.566-.367.082-.437.272-.359.596.21.868.52 1.69 1.096 2.384 1.355 1.633 3.154 2.23 5.086 2.272 1.622-.006 3.034-.364 4.216-1.363zM91.844 11.515c.004-.382-.083-.538-.492-.52a24.54 24.54 0 0 1-2.15 0c-.416-.017-.55.114-.545.54.02 1.833.013 3.666.007 5.5-.004 1.61.02 3.224-.04 4.833-.058 1.512-1.124 2.56-2.586 2.662-1.838.128-3.046-.674-3.354-2.264-.08-.41-.078-.842-.078-1.264-.006-3.142-.011-6.285.005-9.427.003-.441-.104-.607-.565-.581-.715.04-1.434.029-2.15.003-.37-.014-.473.11-.472.479.013 3.465-.05 6.93.028 10.394.054 2.396 1.124 4.25 3.366 5.259 1.056.475 2.183.59 3.332.532 3.066-.153 5.206-2.082 5.599-5.154.243-1.901.023-3.822.088-5.366 0-2.12-.01-3.873.007-5.626zm-32.604.025c.002-.413-.1-.566-.528-.545-.716.034-1.435.033-2.151 0-.411-.019-.496.14-.492.52.017 1.793-.009 3.587.018 5.38.007.478-.083.66-.607.651a196.297 196.297 0 0 0-5.858-.002c-.449.006-.572-.116-.566-.571.027-1.813-.001-3.627.02-5.44.005-.424-.116-.557-.535-.538-.736.033-1.474.023-2.211.003-.314-.008-.41.098-.41.413.008 5.158.01 10.316-.001 15.474-.001.362.131.435.452.426.737-.02 1.475-.03 2.211.003.407.018.496-.13.493-.514-.018-1.894.005-3.788-.018-5.682-.005-.44.095-.586.556-.58 1.973.028 3.946.028 5.918 0 .464-.006.56.143.555.581-.023 1.894 0 3.788-.017 5.682-.004.386.089.531.493.513a22.837 22.837 0 0 1 2.152 0c.427.022.529-.127.526-.542-.018-2.518-.009-5.037-.009-7.555 0-2.56-.009-5.118.009-7.677zm68.231-.886c-4.734-.015-8.302 3.625-8.314 8.482-.011 4.862 3.536 8.516 8.274 8.522 4.754.006 8.307-3.62 8.304-8.479-.002-4.887-3.514-8.51-8.264-8.525zM69.423 27.658c4.724-.013 8.266-3.633 8.278-8.457.01-4.898-3.534-8.544-8.311-8.548-4.73-.004-8.274 3.65-8.267 8.522.008 4.872 3.554 8.496 8.3 8.483zm81.978-.347c-.876-.002-1.754-.033-2.628.005-.512.023-.81-.129-1.098-.59-2.152-3.454-4.341-6.886-6.52-10.325-.084-.134-.176-.263-.287-.427-.176.19-.095.394-.095.57-.006 3.384-.016 6.767.008 10.15.004.511-.135.655-.628.622a18.586 18.586 0 0 0-2.03-.002c-.389.016-.51-.103-.504-.503.02-1.651.008-3.303.008-4.954 0-3.403.014-6.807-.014-10.21-.004-.547.15-.68.666-.655.915.044 1.833.036 2.748 0 .398-.015.602.138.802.462 2.023 3.275 4.06 6.542 6.094 9.81.052.084.108.165.197.298.126-.234.076-.45.076-.65.004-3.102.011-6.203-.007-9.305-.002-.457.089-.638.585-.615.874.04 1.751.002 2.627-.003V27.31z"/>
    </g>
</svg>
