<svg xmlns="http://www.w3.org/2000/svg" width="200" height="36" viewBox="0 0 200 36">
    <defs>
        <linearGradient id="a" x1="6.921%" x2="93.537%" y1="17.795%" y2="94.085%">
            <stop offset="0%" stop-color="#294192"/>
            <stop offset="18.29%" stop-color="#2F4093"/>
            <stop offset="43.5%" stop-color="#413F95"/>
            <stop offset="72.57%" stop-color="#5E3C98"/>
            <stop offset="100%" stop-color="#80399C"/>
        </linearGradient>
        <linearGradient id="b" x1="10.889%" x2="89.124%" y1="4.372%" y2="95.533%">
            <stop offset="0%" stop-color="#294192"/>
            <stop offset="18.29%" stop-color="#2F4093"/>
            <stop offset="43.5%" stop-color="#413F95"/>
            <stop offset="72.57%" stop-color="#5E3C98"/>
            <stop offset="100%" stop-color="#80399C"/>
        </linearGradient>
        <linearGradient id="c" x1="19.207%" x2="92.825%" y1="14.313%" y2="94.157%">
            <stop offset="0%" stop-color="#294192"/>
            <stop offset="18.29%" stop-color="#2F4093"/>
            <stop offset="43.5%" stop-color="#413F95"/>
            <stop offset="72.57%" stop-color="#5E3C98"/>
            <stop offset="100%" stop-color="#80399C"/>
        </linearGradient>
        <linearGradient id="d" x1="19.308%" x2="80.755%" y1="1.184%" y2="79.02%">
            <stop offset="0%" stop-color="#294192"/>
            <stop offset="18.29%" stop-color="#2F4093"/>
            <stop offset="43.5%" stop-color="#413F95"/>
            <stop offset="72.57%" stop-color="#5E3C98"/>
            <stop offset="100%" stop-color="#80399C"/>
        </linearGradient>
        <linearGradient id="e" x1="-.011%" x2="99.991%" y1="49.992%" y2="49.992%">
            <stop offset="0%" stop-color="#294192"/>
            <stop offset=".33%" stop-color="#2A4192"/>
            <stop offset="7.492%" stop-color="#453E95"/>
            <stop offset="15.62%" stop-color="#5B3C98"/>
            <stop offset="25.22%" stop-color="#6C3B9A"/>
            <stop offset="37.09%" stop-color="#773A9B"/>
            <stop offset="53.75%" stop-color="#7E399C"/>
            <stop offset="100%" stop-color="#80399C"/>
        </linearGradient>
        <linearGradient id="f" x1="-.015%" x2="99.987%" y1="49.992%" y2="49.992%">
            <stop offset="0%" stop-color="#294192"/>
            <stop offset="46.02%" stop-color="#2B4192"/>
            <stop offset="62.6%" stop-color="#324093"/>
            <stop offset="74.41%" stop-color="#3D3F94"/>
            <stop offset="83.96%" stop-color="#4E3E96"/>
            <stop offset="92.05%" stop-color="#643C99"/>
            <stop offset="99.18%" stop-color="#7F399C"/>
            <stop offset="99.51%" stop-color="#80399C"/>
        </linearGradient>
    </defs>
    <g fill="none" fill-rule="nonzero">
        <path fill="url(#a)" d="M7.117 8.37c-.132.84-.264 1.68-.392 2.519-.332 2.164-.666 4.328-.994 6.496-.318 2.104-.633 4.207-.954 6.308l-.968 6.304c-.106.693-.206 1.389-.312 2.082-.025.169-.064.335-.093.5-.064.346-.296.53-.624.537-.726.02-1.456.026-2.182-.006-.405-.02-.595-.284-.585-.696.003-.128.02-.255.042-.38l.948-5.727.964-5.854c.318-1.932.633-3.863.952-5.791.366-2.225.736-4.447 1.102-6.672.376-2.266.752-4.533 1.125-6.796.013-.083.023-.17.039-.252.1-.457.27-.61.749-.632.363-.016.73-.004 1.093.003a.687.687 0 0 1 .652.434c.07.153.138.313.206.47l9.367 22.105c.273.645.556 1.284.835 1.922.235-.057.251-.255.319-.396 1.125-2.365 2.247-4.73 3.365-7.1l7.801-16.516c.08-.172.164-.348.251-.517a.67.67 0 0 1 .614-.396c.386-.006.772-.01 1.157 0 .344.01.563.195.637.524.07.31.119.625.167.941.318 2.104.633 4.208.951 6.308.319 2.104.646 4.204.965 6.308.28 1.83.553 3.658.829 5.488.28 1.829.563 3.658.839 5.487.28 1.83.553 3.658.833 5.488.064.42.135.84.192 1.26a1.7 1.7 0 0 1 .026.441.598.598 0 0 1-.479.536 1.69 1.69 0 0 1-.382.039c-.579.003-1.158.003-1.736 0-.064 0-.129 0-.193-.007-.392-.048-.579-.198-.656-.584-.087-.437-.148-.881-.212-1.322-.318-2.209-.63-4.42-.951-6.63-.277-1.915-.56-3.83-.84-5.746-.23-1.6-.462-3.198-.69-4.798l-.8-5.557c-.017-.106-.023-.214-.12-.291-.144-.01-.15.121-.19.201-3.493 7.438-6.984 14.88-10.478 22.317-.357.76-.409.789-1.273.789-.216 0-.428-.004-.643-.007-.338-.003-.563-.169-.694-.472-.058-.138-.12-.272-.177-.412L7.743 9.513c-.16-.393-.302-.792-.626-1.143z"/>
        <path fill="url(#b)" d="M175.233 7.281c-.138.205-.093.355-.093.498.077 8.064.013 16.128.035 24.191 0 .15.007.297-.006.447-.036.476-.245.677-.733.712-.193.013-.386.006-.579.006-.427 0-.858.013-1.285-.003-.553-.022-.756-.236-.785-.795-.01-.169-.003-.341-.003-.51V1.57c0-.233-.003-.47.022-.7.04-.316.222-.513.54-.539.36-.032.727-.016 1.09-.013a.62.62 0 0 1 .45.217c.132.14.26.284.386.428 6.67 7.633 13.336 15.269 20.003 22.904.672.773 1.321 1.568 1.983 2.347.08.092.139.217.28.252.132-.058.08-.179.08-.272-.006-8.105-.016-16.213-.025-24.318 0-.233-.007-.47.019-.702.042-.377.241-.588.627-.597a31.242 31.242 0 0 1 2.118.003c.38.013.57.23.61.613.02.17.014.338.014.51v30.512c0 .17.006.342-.01.51-.039.41-.238.623-.65.658-.298.026-.597.013-.9.007a.784.784 0 0 1-.568-.259c-.1-.108-.2-.22-.3-.335L175.562 7.636c-.093-.112-.196-.214-.328-.355z"/>
        <path fill="url(#c)" d="M60.186 17.05c-.012-2.624.373-4.948 1.305-7.15 1.57-3.707 4.125-6.535 7.763-8.349C70.781.791 72.417.373 74.108.166c2.433-.297 4.834-.121 7.184.584 2.652.795 4.864 2.283 6.728 4.297 2.343 2.535 3.732 5.52 4.227 8.922.443 3.046.196 6.024-.788 8.942-.122.364-.26.721-.414 1.072a1.03 1.03 0 0 0-.061.68c.395 1.785.78 3.572 1.17 5.36.135.622.266 1.248.411 1.867.09.38.087.75-.01 1.13-.122.476-.234.942-.569 1.335-.414.482-.883.833-1.52.99a3.563 3.563 0 0 1-1.758.012c-2.79-.667-5.59-1.29-8.383-1.934a2.552 2.552 0 0 0-1.077-.023c-1.1.208-2.208.275-3.327.25-4.896-.116-8.907-2.025-11.996-5.817-1.861-2.286-2.996-4.887-3.478-7.783-.177-1.069-.273-2.148-.26-3zM89.5 32.43c.067-.255-.01-.453-.055-.658-.534-2.451-1.058-4.906-1.604-7.355a1.401 1.401 0 0 1 .135-1.028c1.456-2.767 1.932-5.7 1.437-8.785-.495-3.064-1.855-5.698-4.13-7.824-3.003-2.802-6.58-3.977-10.676-3.489-2.488.297-4.683 1.309-6.612 2.896-3.58 2.952-5.461 7.626-4.873 12.366.354 2.85 1.466 5.36 3.366 7.521 3.06 3.476 7.791 5.197 12.539 4.172.302-.063.588-.047.887.023 2.983.69 5.966 1.37 8.95 2.052.205.045.41.07.636.109z"/>
        <path fill="url(#d)" d="M118.216 11.623V1.79c0-.214-.006-.428.029-.635.061-.374.267-.543.652-.585.023-.003.042-.003.065-.003.643 0 1.286-.013 1.928.003.48.013.691.23.74.71.019.187.01.382.01.574v13.854c0 1.66-.01 3.32.025 4.98.029 1.366.215 2.713.64 4.019.215.67.492 1.315.842 1.928a7.129 7.129 0 0 0 3.365 3.036 9.103 9.103 0 0 0 2.588.724c1.736.214 3.465.214 5.175-.188 1.6-.377 3.002-1.114 4.099-2.362.613-.7 1.06-1.49 1.414-2.343.408-.99.646-2.024.787-3.084.151-1.12.168-2.247.168-3.377.003-5.724 0-11.448.003-17.175 0-.233-.003-.469.032-.699.058-.386.25-.58.636-.59a34.002 34.002 0 0 1 2.058-.003c.44.012.64.239.684.69.013.127.007.255.007.382 0 6.043.003 12.086-.004 18.132 0 2.011-.276 3.987-.89 5.909a12.075 12.075 0 0 1-2.18 4.022c-1.446 1.762-3.317 2.857-5.518 3.419-2.058.527-4.14.638-6.25.434a15.35 15.35 0 0 1-3.018-.594c-2.664-.807-4.667-2.445-6.068-4.83-.843-1.433-1.34-2.984-1.656-4.603a20.734 20.734 0 0 1-.36-3.936c-.006-2.656-.003-5.318-.003-7.977z"/>
        <path fill="url(#e)" d="M79.656 24.267c-.157-.08-.257-.214-.347-.36-1.33-2.136-2.662-4.268-3.996-6.4-.736-1.179-.996-2.45-.736-3.81.245-1.27.894-2.313 1.926-3.108 1.093-.846 2.34-1.204 3.716-1.07a5.082 5.082 0 0 1 3.262 1.584c1.026 1.072 1.498 2.359 1.443 3.837a5.006 5.006 0 0 1-.736 2.42c-1.33 2.215-2.668 4.427-3.998 6.64a.687.687 0 0 1-.306.267h-.228zm.113-1.27c.035-.051.054-.08.073-.112 1.193-1.98 2.389-3.961 3.581-5.944a4.379 4.379 0 0 0 .614-1.813c.187-1.717-.733-3.45-2.266-4.258a4.369 4.369 0 0 0-5.333.95c-1.23 1.37-1.465 3.417-.52 4.99.903 1.504 1.848 2.979 2.777 4.47.354.561.707 1.126 1.074 1.717z"/>
        <path fill="url(#f)" d="M73.857 24.267c-.157-.08-.257-.214-.347-.36-1.33-2.136-2.661-4.268-3.995-6.4-.736-1.179-.997-2.45-.736-3.81.244-1.27.893-2.313 1.925-3.108 1.093-.846 2.34-1.204 3.716-1.07a5.082 5.082 0 0 1 3.262 1.584c1.026 1.072 1.498 2.359 1.444 3.837a5.006 5.006 0 0 1-.736 2.42c-1.331 2.215-2.668 4.427-4 6.64a.687.687 0 0 1-.304.267h-.229zm.113-1.27c.035-.051.054-.08.074-.112 1.192-1.98 2.388-3.961 3.58-5.944a4.379 4.379 0 0 0 .615-1.813c.186-1.717-.733-3.45-2.267-4.258a4.369 4.369 0 0 0-5.332.95c-1.231 1.37-1.466 3.417-.521 4.99.903 1.504 1.848 2.979 2.777 4.47.354.561.704 1.126 1.074 1.717z"/>
        <g fill="#AEAEAE">
            <path d="M7.117 8.37c-.132.84-.264 1.68-.392 2.519-.332 2.164-.666 4.328-.994 6.496-.318 2.104-.633 4.207-.954 6.308l-.968 6.304c-.106.693-.206 1.389-.312 2.082-.025.169-.064.335-.093.5-.064.346-.296.53-.624.537-.726.02-1.456.026-2.182-.006-.405-.02-.595-.284-.585-.696.003-.128.02-.255.042-.38l.948-5.727.964-5.854c.318-1.932.633-3.863.952-5.791.366-2.225.736-4.447 1.102-6.672.376-2.266.752-4.533 1.125-6.796.013-.083.023-.17.039-.252.1-.457.27-.61.749-.632.363-.016.73-.004 1.093.003a.687.687 0 0 1 .652.434c.07.153.138.313.206.47l9.367 22.105c.273.645.556 1.284.835 1.922.235-.057.251-.255.319-.396 1.125-2.365 2.247-4.73 3.365-7.1l7.801-16.516c.08-.172.164-.348.251-.517a.67.67 0 0 1 .614-.396c.386-.006.772-.01 1.157 0 .344.01.563.195.637.524.07.31.119.625.167.941.318 2.104.633 4.208.951 6.308.319 2.104.646 4.204.965 6.308.28 1.83.553 3.658.829 5.488.28 1.829.563 3.658.839 5.487.28 1.83.553 3.658.833 5.488.064.42.135.84.192 1.26a1.7 1.7 0 0 1 .026.441.598.598 0 0 1-.479.536 1.69 1.69 0 0 1-.382.039c-.579.003-1.158.003-1.736 0-.064 0-.129 0-.193-.007-.392-.048-.579-.198-.656-.584-.087-.437-.148-.881-.212-1.322-.318-2.209-.63-4.42-.951-6.63-.277-1.915-.56-3.83-.84-5.746-.23-1.6-.462-3.198-.69-4.798l-.8-5.557c-.017-.106-.023-.214-.12-.291-.144-.01-.15.121-.19.201-3.493 7.438-6.984 14.88-10.478 22.317-.357.76-.409.789-1.273.789-.216 0-.428-.004-.643-.007-.338-.003-.563-.169-.694-.472-.058-.138-.12-.272-.177-.412L7.743 9.513c-.16-.393-.302-.792-.626-1.143zM175.233 7.281c-.138.205-.093.355-.093.498.077 8.064.013 16.128.035 24.191 0 .15.007.297-.006.447-.036.476-.245.677-.733.712-.193.013-.386.006-.579.006-.427 0-.858.013-1.285-.003-.553-.022-.756-.236-.785-.795-.01-.169-.003-.341-.003-.51V1.57c0-.233-.003-.47.022-.7.04-.316.222-.513.54-.539.36-.032.727-.016 1.09-.013a.62.62 0 0 1 .45.217c.132.14.26.284.386.428 6.67 7.633 13.336 15.269 20.003 22.904.672.773 1.321 1.568 1.983 2.347.08.092.139.217.28.252.132-.058.08-.179.08-.272-.006-8.105-.016-16.213-.025-24.318 0-.233-.007-.47.019-.702.042-.377.241-.588.627-.597a31.242 31.242 0 0 1 2.118.003c.38.013.57.23.61.613.02.17.014.338.014.51v30.512c0 .17.006.342-.01.51-.039.41-.238.623-.65.658-.298.026-.597.013-.9.007a.784.784 0 0 1-.568-.259c-.1-.108-.2-.22-.3-.335L175.562 7.636c-.093-.112-.196-.214-.328-.355zM60.186 17.05c-.012-2.624.373-4.948 1.305-7.15 1.57-3.707 4.125-6.535 7.763-8.349C70.781.791 72.417.373 74.108.166c2.433-.297 4.834-.121 7.184.584 2.652.795 4.864 2.283 6.728 4.297 2.343 2.535 3.732 5.52 4.227 8.922.443 3.046.196 6.024-.788 8.942-.122.364-.26.721-.414 1.072a1.03 1.03 0 0 0-.061.68c.395 1.785.78 3.572 1.17 5.36.135.622.266 1.248.411 1.867.09.38.087.75-.01 1.13-.122.476-.234.942-.569 1.335-.414.482-.883.833-1.52.99a3.563 3.563 0 0 1-1.758.012c-2.79-.667-5.59-1.29-8.383-1.934a2.552 2.552 0 0 0-1.077-.023c-1.1.208-2.208.275-3.327.25-4.896-.116-8.907-2.025-11.996-5.817-1.861-2.286-2.996-4.887-3.478-7.783-.177-1.069-.273-2.148-.26-3zM89.5 32.43c.067-.255-.01-.453-.055-.658-.534-2.451-1.058-4.906-1.604-7.355a1.401 1.401 0 0 1 .135-1.028c1.456-2.767 1.932-5.7 1.437-8.785-.495-3.064-1.855-5.698-4.13-7.824-3.003-2.802-6.58-3.977-10.676-3.489-2.488.297-4.683 1.309-6.612 2.896-3.58 2.952-5.461 7.626-4.873 12.366.354 2.85 1.466 5.36 3.366 7.521 3.06 3.476 7.791 5.197 12.539 4.172.302-.063.588-.047.887.023 2.983.69 5.966 1.37 8.95 2.052.205.045.41.07.636.109zM118.216 11.623V1.79c0-.214-.006-.428.029-.635.061-.374.267-.543.652-.585.023-.003.042-.003.065-.003.643 0 1.286-.013 1.928.003.48.013.691.23.74.71.019.187.01.382.01.574v13.854c0 1.66-.01 3.32.025 4.98.029 1.366.215 2.713.64 4.019.215.67.492 1.315.842 1.928a7.129 7.129 0 0 0 3.365 3.036 9.103 9.103 0 0 0 2.588.724c1.736.214 3.465.214 5.175-.188 1.6-.377 3.002-1.114 4.099-2.362.613-.7 1.06-1.49 1.414-2.343.408-.99.646-2.024.787-3.084.151-1.12.168-2.247.168-3.377.003-5.724 0-11.448.003-17.175 0-.233-.003-.469.032-.699.058-.386.25-.58.636-.59a34.002 34.002 0 0 1 2.058-.003c.44.012.64.239.684.69.013.127.007.255.007.382 0 6.043.003 12.086-.004 18.132 0 2.011-.276 3.987-.89 5.909a12.075 12.075 0 0 1-2.18 4.022c-1.446 1.762-3.317 2.857-5.518 3.419-2.058.527-4.14.638-6.25.434a15.35 15.35 0 0 1-3.018-.594c-2.664-.807-4.667-2.445-6.068-4.83-.843-1.433-1.34-2.984-1.656-4.603a20.734 20.734 0 0 1-.36-3.936c-.006-2.656-.003-5.318-.003-7.977z"/>
            <path d="M79.656 24.267c-.157-.08-.257-.214-.347-.36-1.33-2.136-2.662-4.268-3.996-6.4-.736-1.179-.996-2.45-.736-3.81.245-1.27.894-2.313 1.926-3.108 1.093-.846 2.34-1.204 3.716-1.07a5.082 5.082 0 0 1 3.262 1.584c1.026 1.072 1.498 2.359 1.443 3.837a5.006 5.006 0 0 1-.736 2.42c-1.33 2.215-2.668 4.427-3.998 6.64a.687.687 0 0 1-.306.267h-.228zm.113-1.27c.035-.051.054-.08.073-.112 1.193-1.98 2.389-3.961 3.581-5.944a4.379 4.379 0 0 0 .614-1.813c.187-1.717-.733-3.45-2.266-4.258a4.369 4.369 0 0 0-5.333.95c-1.23 1.37-1.465 3.417-.52 4.99.903 1.504 1.848 2.979 2.777 4.47.354.561.707 1.126 1.074 1.717z"/>
            <path d="M73.857 24.267c-.157-.08-.257-.214-.347-.36-1.33-2.136-2.661-4.268-3.995-6.4-.736-1.179-.997-2.45-.736-3.81.244-1.27.893-2.313 1.925-3.108 1.093-.846 2.34-1.204 3.716-1.07a5.082 5.082 0 0 1 3.262 1.584c1.026 1.072 1.498 2.359 1.444 3.837a5.006 5.006 0 0 1-.736 2.42c-1.331 2.215-2.668 4.427-4 6.64a.687.687 0 0 1-.304.267h-.229zm.113-1.27c.035-.051.054-.08.074-.112 1.192-1.98 2.388-3.961 3.58-5.944a4.379 4.379 0 0 0 .615-1.813c.186-1.717-.733-3.45-2.267-4.258a4.369 4.369 0 0 0-5.332.95c-1.231 1.37-1.466 3.417-.521 4.99.903 1.504 1.848 2.979 2.777 4.47.354.561.704 1.126 1.074 1.717z"/>
        </g>
    </g>
</svg>
