<svg xmlns="http://www.w3.org/2000/svg" width="138" height="82" viewBox="0 0 138 82">
    <g fill="none" fill-rule="nonzero">
        <path fill="#A1A1A1" d="M43.456 2.46c5.608.083 9.965 2.511 13.088 7.127 1.915 2.83 3.662 5.766 5.457 8.676 5.639 9.147 11.121 18.399 16.677 27.604.805 1.334 1.742 2.548 3.034 3.448 2.956 2.062 6.963.78 8.082-2.59.455-1.36.309-2.716-.104-4.06-.246-.786-.592-1.524-.99-2.24-2.28-4.135-4.65-8.222-7.108-12.25-1.319-2.167-2.234-4.49-2.626-6.997-1.13-7.206 2.223-14.155 8.966-17.515 2.809-1.402 5.79-2.004 8.92-1.7 4.98.486 8.95 2.788 11.921 6.807 1.041 1.403 1.836 2.962 2.715 4.464 6.299 10.811 12.32 21.774 18.351 32.732 1.7 3.093 3.458 6.149 5.048 9.299 1.015 2.01 1.926 4.06 2.532 6.238 1.03 3.72.576 7.31-1.114 10.743-1.878 3.804-4.88 6.379-8.804 7.922-2.145.843-4.358 1.288-6.665 1.188-3.227-.14-6.094-1.276-8.663-3.197-1.124-.842-2.129-1.826-3.227-2.705-1.967-1.576-4.013-3.015-6.32-4.05-2.014-.9-4.111-1.408-6.335-1.335-2.035.068-3.95.612-5.79 1.444-2.271 1.026-4.311 2.418-6.278 3.93-2.338 1.8-4.823 3.344-7.58 4.427-2.516.984-5.111 1.492-7.82 1.345-2.564-.141-4.96-.874-7.23-2.056-1.742-.906-3.307-2.067-4.824-3.302-2.882-2.34-6.1-4.025-9.756-4.794-4.588-.968-8.971-.335-13.156 1.753-2.14 1.068-4.023 2.491-5.802 4.077-2.307 2.061-4.922 3.61-7.91 4.5-2.113.628-4.253.696-6.418.361-2.82-.434-5.383-1.486-7.627-3.26C3.013 76.06 1.088 72.905.36 69.038c-1.47-7.839 3.337-15.49 11.033-17.562 1.705-.46 3.442-.58 5.205-.455 1.977.136 3.866.602 5.644 1.486 1.925.958 3.479 2.36 4.818 4.024.827 1.031 1.491 2.167 2.276 3.224.774 1.046 1.564 2.072 2.579 2.91 1.784 1.47 3.813 1.852 6.037 1.365.69-.152 1.37-.345 2.03-.58 1.82-.65 2.887-1.994 3.373-3.81.628-2.35.194-4.563-1.056-6.62-2.454-4.045-4.98-8.048-7.528-12.03-2.197-3.439-4.41-6.86-6.597-10.304-1.517-2.386-2.568-4.96-3.05-7.755-1.255-7.295 1.915-14.244 8.559-17.902 2.495-1.376 5.179-2.161 8.009-2.465.591-.063 1.172-.1 1.763-.105z"/>
        <path fill="#AEAEAE" d="M43.404.576c5.607.083 9.965 2.511 13.088 7.127 1.915 2.83 3.662 5.767 5.456 8.676 5.64 9.147 11.122 18.399 16.677 27.604.806 1.334 1.742 2.548 3.035 3.448 2.955 2.062 6.962.78 8.082-2.59.455-1.36.308-2.716-.105-4.06-.246-.786-.59-1.524-.988-2.24-2.281-4.134-4.651-8.221-7.11-12.25-1.318-2.167-2.233-4.49-2.626-6.997-1.13-7.206 2.223-14.155 8.967-17.515C90.689.377 93.67-.225 96.799.08c4.98.486 8.95 2.789 11.922 6.808 1.04 1.402 1.836 2.961 2.715 4.463 6.298 10.811 12.32 21.774 18.351 32.732 1.7 3.093 3.458 6.149 5.048 9.3 1.015 2.009 1.925 4.06 2.532 6.237 1.03 3.72.575 7.31-1.114 10.743-1.878 3.804-4.881 6.379-8.804 7.923-2.145.842-4.358 1.287-6.665 1.187-3.228-.14-6.094-1.276-8.663-3.197-1.125-.842-2.129-1.826-3.228-2.705-1.967-1.575-4.012-3.014-6.319-4.05-2.014-.9-4.112-1.408-6.335-1.335-2.035.068-3.95.612-5.79 1.444-2.271 1.026-4.311 2.418-6.278 3.93-2.339 1.8-4.824 3.344-7.58 4.427-2.517.984-5.111 1.492-7.821 1.345-2.563-.141-4.96-.874-7.23-2.056-1.742-.906-3.306-2.067-4.823-3.302-2.882-2.34-6.1-4.024-9.756-4.794-4.588-.968-8.972-.335-13.157 1.753-2.14 1.068-4.023 2.491-5.801 4.077-2.307 2.062-4.923 3.61-7.91 4.5-2.113.628-4.253.696-6.419.361-2.82-.434-5.382-1.486-7.627-3.26-3.086-2.433-5.011-5.589-5.738-9.456-1.47-7.839 3.337-15.49 11.032-17.562 1.706-.46 3.442-.58 5.205-.455 1.978.136 3.866.602 5.645 1.486 1.925.958 3.479 2.36 4.818 4.024.826 1.031 1.49 2.167 2.275 3.224.775 1.047 1.565 2.072 2.58 2.91 1.783 1.47 3.813 1.852 6.036 1.365.69-.151 1.37-.345 2.03-.58 1.82-.65 2.888-1.994 3.374-3.81.628-2.35.194-4.563-1.057-6.62-2.453-4.045-4.98-8.048-7.527-12.03-2.197-3.438-4.41-6.86-6.597-10.304-1.517-2.386-2.568-4.96-3.05-7.755-1.255-7.295 1.915-14.244 8.559-17.902C36.127 1.769 38.81.984 41.64.68c.59-.063 1.171-.1 1.763-.104z"/>
        <g fill="#FFF">
            <path d="M51.988 58.43v3.266c0 .346-.105.45-.455.45h-1.099c-.282 0-.397-.115-.397-.397v-7.08c0-.273.115-.388.387-.393h1.125c.167 0 .287.063.376.214.628 1.084 1.261 2.162 1.889 3.24.036.062.062.13.104.22.142-.335.325-.623.492-.927.46-.837.926-1.664 1.386-2.501a.424.424 0 0 1 .419-.24h1.098c.262 0 .382.12.382.381v7.106c0 .252-.12.372-.371.377h-1.26c-.273 0-.383-.12-.383-.392V58.52v-.157c-.01-.005-.015-.005-.026-.01l-.251.439c-.345.607-.696 1.22-1.041 1.831-.073.126-.167.189-.309.194-.69.005-.57.047-.878-.466-.372-.612-.738-1.23-1.104-1.842-.016-.026-.032-.047-.047-.073-.016-.005-.027-.005-.037-.005zM112 58.384c-.036.068-.025.125-.025.178v3.129c0 .361-.095.455-.456.455h-1.124c-.257 0-.361-.104-.361-.356v-7.18c0-.266.12-.381.392-.386.267 0 .534.005.8-.006a.51.51 0 0 1 .471.246c.811 1.152 1.627 2.303 2.438 3.449.026.042.058.078.094.125.047-.052.026-.115.026-.167v-3.13c0-.355.105-.46.46-.46h1.1c.271 0 .392.115.392.387v7.154c0 .272-.12.387-.393.387h-.847a.448.448 0 0 1-.398-.204 850.335 850.335 0 0 0-2.49-3.522c-.026-.031-.052-.057-.078-.1zM78.73 57.102l.947-1.45c.256-.392.518-.78.769-1.177a.394.394 0 0 1 .356-.194c.491-.005.978 0 1.47 0 .14 0 .266.037.334.173.068.13.021.246-.057.356-.664.957-1.334 1.915-1.993 2.873-.094.136-.22.22-.335.314.55.481.868 1.125 1.292 1.69.455.612.89 1.245 1.329 1.873.042.058.084.11.104.178.074.215-.052.393-.292.403-.262.005-.524 0-.785 0-.272 0-.544-.005-.816 0a.476.476 0 0 1-.445-.23c-.601-.885-1.208-1.758-1.815-2.638-.021-.031-.047-.062-.094-.125v2.569c0 .32-.105.424-.43.424h-1.187c-.293 0-.403-.115-.403-.403v-7.064c0-.283.116-.398.398-.398h1.23c.277 0 .392.115.392.403v2.417c.01 0 .02.006.031.006zM67.127 60.54c-.256 0-.512.005-.769 0-.1-.005-.146.026-.178.125-.13.403-.272.806-.413 1.204-.073.21-.162.272-.387.272-.413 0-.832-.005-1.245 0-.32.005-.434-.235-.345-.492.863-2.38 1.71-4.767 2.558-7.153.078-.22.162-.283.392-.283h.858c.246 0 .33.063.413.298.848 2.376 1.695 4.752 2.548 7.128.125.345-.079.502-.361.502-.424-.005-.853 0-1.276 0-.252 0-.33-.058-.419-.293a80.813 80.813 0 0 1-.434-1.198c-.032-.095-.079-.115-.168-.115-.245.01-.507.005-.774.005zm.403-1.748c-.126-.372-.24-.722-.36-1.073-.137.335-.247.66-.351.984-.021.058-.021.094.057.089.21-.005.419 0 .654 0zM125.063 62.293a5.86 5.86 0 0 1-2.239-.424c-.282-.115-.34-.251-.235-.534.125-.345.256-.696.382-1.041.1-.267.266-.335.523-.215.607.278 1.234.398 1.904.32.12-.016.23-.048.34-.1.33-.157.371-.534.089-.759-.267-.214-.58-.335-.89-.47-.392-.173-.79-.336-1.15-.576-.937-.623-1.25-1.539-1.02-2.601.183-.848.727-1.371 1.538-1.601 1.067-.299 2.124-.189 3.154.193.084.032.162.074.24.12.142.084.194.205.137.367-.142.403-.283.8-.434 1.198-.074.2-.278.251-.482.147a3.147 3.147 0 0 0-1.789-.288.548.548 0 0 0-.293.126.325.325 0 0 0-.026.497c.12.125.267.22.424.293.324.157.654.303.983.45.44.199.853.434 1.193.785.596.612.722 1.355.554 2.156-.22 1.083-.941 1.643-1.982 1.857a3.951 3.951 0 0 1-.92.1zM91.704 58.546A852.152 852.152 0 0 0 93 54.574c.073-.225.162-.293.397-.293h1.303c.303 0 .45.199.345.487-.884 2.391-1.763 4.788-2.647 7.185-.068.183-.157.25-.355.25a25.19 25.19 0 0 1-.89 0c-.209-.004-.303-.072-.376-.271-.884-2.376-1.763-4.757-2.653-7.133-.136-.36.079-.528.361-.523.471.01.942.005 1.408.005.266 0 .345.063.434.309.434 1.272.863 2.543 1.297 3.815.021.042.026.094.079.141zM101.214 58.211v-3.5c0-.325.105-.43.424-.43h1.171c.314 0 .424.11.424.419v7.033c0 .303-.115.419-.424.419h-1.187c-.32 0-.408-.09-.408-.403V58.21z"/>
        </g>
    </g>
</svg>
