<svg xmlns="http://www.w3.org/2000/svg" width="200" height="43" viewBox="0 0 200 43">
    <g fill="#AEAEAE" fill-rule="nonzero">
        <path d="M20.643 26.83c2.151-8.863 4.322-17.725 6.473-26.628h13.768v36.56h-8.462V6.056c-.06 0-.14-.02-.2-.02-2.473 10.155-4.966 20.31-7.398 30.262-2.774 0-5.407.02-8.06-.04-.241 0-.583-.465-.663-.768-1.568-6.177-3.076-12.375-4.624-18.573-.864-3.512-1.748-7.045-2.613-10.558-.04-.182-.12-.343-.281-.787v30.362c-2.834-.161-5.648-.323-8.523-.484V.162h1.046c3.859 0 7.698.04 11.557-.02.885-.02 1.186.282 1.387 1.11 2.05 8.378 4.161 16.756 6.252 25.113.04.162.1.303.14.444.06 0 .12 0 .201.02zM125.327 10.7h7.819v3.19c2.13-2.827 4.884-4.099 8.301-4.038 3.257.06 6.292.585 8.221 3.795.221-.182.443-.343.623-.545 1.99-2.302 4.624-3.089 7.538-3.23 1.749-.08 3.478.02 5.106.807 1.407.687 2.452 1.636 2.653 3.291.422 3.573.824 7.126 1.246 10.8-2.834.747-5.467 1.434-8.281 2.16v-1.21c-.04-2.06-.04-4.099-.14-6.158-.101-1.938-1.086-3.048-3.016-3.29a7.356 7.356 0 0 0-2.573.16c-1.487.384-2.15 1.374-2.231 3.19a268.7 268.7 0 0 0-.241 8.076c0 .787-.201 1.11-1.025 1.231-2.433.404-4.865.909-7.458 1.393v-1.17c-.04-3.09.04-6.198-.16-9.267-.222-3.412-3.498-4.926-6.392-3.048-.423.282-.784.969-.825 1.494a408.001 408.001 0 0 0-.643 11.062c-.1 2.221-.04 2.2-2.21 2.484-2.091.262-4.162.565-6.332.868.02-7.41.02-14.677.02-22.045zM56.824 19.885h-8.1c-.784-2.907 1.165-6.844 4.14-8.439 1.81-.948 3.78-1.332 5.79-1.493 3.095-.243 6.15-.142 9.165.686 2.312.626 3.88 1.918 4.201 4.421.362 2.725.864 5.45 1.025 8.196.282 4.36.342 8.742.483 13.304H63.256c2.573-3.15 1.93-7.005 2.05-10.922-3.015 1.353-6.09 2.282-7.798 5.29-1.106 1.958-.804 4.057.804 5.834-.262.04-.463.1-.664.1-2.754.021-5.487 0-8.241.041-.724.02-.945-.242-1.105-.928-1.106-5.108.763-8.944 5.547-11.063 2.473-1.09 5.025-2.06 7.498-3.13.904-.403 1.769-.928 2.593-1.513 1.085-.768 1.346-1.858 1.045-3.13-.302-1.251-1.106-1.877-2.312-2.059-.663-.1-1.326-.181-1.99-.181-1.99.02-3.336 1.231-3.658 3.19-.04.585-.1 1.15-.2 1.796zM197.286 14.899c.242 1.615.603 3.149.684 4.724.301 5.632.522 11.285.703 16.917.06 1.898.181 3.755 1.226 5.552h-8.381c-.262-.889-.543-1.797-.825-2.786-1.628 1.736-3.517 2.987-5.849 3.33-1.548.223-3.156.445-4.683.223-3.618-.525-5.588-2.988-6.432-6.36-1.407-5.551.542-9.427 5.809-11.708 2.392-1.05 4.844-1.959 7.236-3.008 1.467-.646 2.955-1.333 3.618-3.008.06-.142.201-.263.342-.344 2.11-1.17 4.24-2.301 6.552-3.532zm-6.572 10.941c-.141-.1-.302-.202-.443-.302-1.95 1.13-3.96 2.18-5.829 3.431-1.246.828-1.99 2.16-2.251 3.695-.322 2.059.603 3.876 2.291 4.441 2.332.767 3.98.101 5.005-2.039.302-.626.603-1.312.664-1.998.22-2.423.382-4.825.563-7.228zM91.377 18.472c1.206-2.403 2.352-4.664 3.457-6.965.302-.626.623-.888 1.347-.868 2.512.04 5.025.02 7.538.02h1.005c-.262.444-.422.767-.603 1.07-2.694 4.502-5.367 8.984-8.08 13.465-.363.606-.363 1.03-.02 1.636 1.587 2.685 3.115 5.39 4.783 8.277-1.508.12-2.874.242-4.261.343-1.066.08-2.151.08-3.196.222-.865.121-1.407-.101-1.669-.97-.06-.241-.24-.443-.341-.625-.543.626-.925 1.433-1.568 1.716-.643.303-1.508.121-2.272.161-2.17.101-4.321.223-6.653.344.241-.444.402-.767.583-1.07 1.689-2.827 3.377-5.653 5.106-8.439.361-.565.321-.969-.02-1.534-2.734-4.462-5.407-8.963-8.121-13.445-.18-.323-.362-.626-.603-1.05.322-.04.563-.08.804-.08 2.653 0 5.286.02 7.94-.02.623 0 .944.16 1.226.746 1.005 2.06 2.05 4.078 3.095 6.117.141.262.302.545.523.949zM117.588 33.633c-2.794.282-5.467.545-8.261.807V10.72h8.26v22.913zM173.85 19.925c-.342-4.582 1.869-8.014 6.13-9.225 4.342-1.252 8.724-1.192 13.085-.04 1.186.322 2.332.786 3.297 1.897-2.191 1.231-4.282 2.382-6.412 3.573-1.206-1.13-2.674-1.272-4.141-1.211-1.95.06-3.236 1.312-3.538 3.33-.24 1.636-.281 1.676-1.95 1.676h-6.472zM166.774 27.294V42.07h-8.16c-.021-.242-.081-.504-.081-.747 0-3.694 0-7.388-.02-11.083 0-.646.16-.928.824-1.09 2.412-.545 4.804-1.17 7.437-1.857zM150.191 31.21v10.882h-8.281v-9.347c2.753-.505 5.467-1.01 8.281-1.535zM73.467 39.023c.362.99.704 1.978 1.126 3.13h-2.694c-1.507 0-3.015-.061-4.522.02-.844.06-1.226-.263-1.407-1.03-.14-.606-.302-1.212-.483-1.958-2.653 3.028-6.03 3.876-9.768 3.754-2.553-.1-4.503-1.312-5.99-3.553 7.98-.12 15.859-.242 23.738-.363zM133.668 42.112h-8.422c0-2.2 0-4.381.02-6.541 0-.162.242-.424.402-.444 2.634-.364 5.287-.707 8-1.07v8.055zM109.307.182h8.28V6.56h-8.28V.181zM117.608 36.055v6.016h-8.322v-5.188c2.754-.262 5.468-.545 8.322-.828zM93.367 38.074c1.085-.06 2.05-.12 2.995-.182 1.668-.12 3.336-.222 5.005-.383.563-.04.904.1 1.186.626.683 1.292 1.447 2.543 2.251 3.936-.362.04-.603.081-.844.081-2.573 0-5.146-.02-7.719.02-.683.02-1.005-.222-1.266-.827-.462-1.05-1.025-2.08-1.608-3.27zM.06 37.872l8.503.485v3.714H.06v-4.199zM88.884 38.337c-.663 1.251-1.206 2.362-1.809 3.432-.1.181-.402.383-.603.383-2.995.02-5.99.02-9.206.02.684-1.13 1.267-2.12 1.89-3.088.1-.162.362-.303.563-.303 2.995-.182 5.99-.303 9.165-.444zM32.422 39.265h8.442v2.827h-8.442v-2.827zM17.709 42.152c-.282-1.15-.563-2.22-.825-3.29h7.257c-.262 1.09-.443 2.018-.704 2.947-.04.161-.402.343-.603.343-1.668.02-3.357 0-5.125 0z"/>
    </g>
</svg>
