<svg xmlns="http://www.w3.org/2000/svg" width="160" height="50" viewBox="0 0 160 50">
    <g fill="#AEAEAE" fill-rule="nonzero">
        <path d="M12.11 2.835v39.562C6.853 40.026 0 32.938 0 22.603 0 12.32 6.802 5.232 12.11 2.835zM28.161 26.392c1.366 1.623 2.68 3.17 3.994 4.742 2.035 2.423 4.07 4.871 6.132 7.268.309.36.36.644.154 1.083-1.597 3.221-3.169 6.469-4.766 9.69-.078.18-.18.361-.31.593-4.2-1.572-8.373-3.144-12.547-4.716 0-.18-.026-.361-.026-.516V34.46c0-.361.078-.619.335-.877l6.648-6.804c.103-.129.231-.232.386-.386zM20.818.284c6.287-.336 11.723 1.546 16.49 5.67-5.488 5.695-10.95 11.366-16.49 17.113V.284zM42.95 31.289c-3.04-3.763-6.003-7.449-9.018-11.186 2.628-2.783 5.23-5.567 7.91-8.428 1.469 2.552 2.319 5.232 2.68 8.067.49 3.944 0 7.758-1.572 11.547zM87.884 10.515h5.05V23.84c.155-.129.258-.206.36-.31 3.35-3.092 6.674-6.185 10.023-9.277a.6.6 0 0 1 .387-.18h5.668c.052 0 .103 0 .206.025-3.066 3.041-6.08 6.03-9.12 9.02 3.375 4.279 6.672 8.48 9.996 12.707-.129 0-.232.026-.31.026h-5.564c-.206 0-.335-.052-.464-.232-2.396-2.964-4.767-5.928-7.163-8.892-.051-.078-.129-.155-.206-.258-.412.387-.799.747-1.21 1.134-.8.748-1.598 1.52-2.397 2.268-.154.129-.206.284-.206.49v5.438h-5.05V10.515zM138.357 10.515h5.05v6.031c.103-.077.155-.103.207-.154 1.417-1.392 3.143-2.14 5.075-2.449 1.752-.257 3.478-.232 5.179.284 3.04.928 4.895 2.938 5.59 6.03.207.954.31 1.934.31 2.939v12.603h-4.715c-.309 0-.36-.103-.36-.387V24.098c0-1.057-.078-2.088-.49-3.067-.593-1.47-1.675-2.371-3.22-2.706-1.289-.284-2.603-.232-3.84.206-2.01.696-3.117 2.19-3.555 4.227a9.06 9.06 0 0 0-.18 1.855c-.026 3.583 0 7.14 0 10.722v.387h-5.05V10.515zM116.174 26.546c.155.902.464 1.701.979 2.423.979 1.392 2.345 2.217 3.968 2.577 1.984.439 3.916.31 5.797-.54.824-.387 1.546-.929 2.241-1.599.902 1.031 1.804 2.062 2.706 3.119a8.455 8.455 0 0 1-1.958 1.752c-1.546 1.006-3.247 1.521-5.076 1.701-2.01.207-3.994.103-5.926-.49-3.401-1.03-5.874-3.144-7.137-6.52-.644-1.701-.799-3.48-.644-5.258.206-2.268.98-4.304 2.422-6.056 1.675-2.036 3.839-3.222 6.415-3.686 2.19-.387 4.38-.31 6.493.49 3.659 1.392 5.797 4.072 6.596 7.835.283 1.34.31 2.68.18 4.046 0 .052-.025.103-.025.18-5.643.026-11.311.026-17.031.026zm12.316-3.376c-.155-2.345-2.216-5.541-6.57-5.335-3.608.18-5.591 3.016-5.746 5.335h12.316zM82.911 24.948c-.025 2.964-.953 5.593-3.014 7.758-1.469 1.547-3.298 2.526-5.385 3.016-2.886.67-5.72.54-8.425-.67-3.53-1.598-5.617-4.356-6.235-8.17-.464-2.913-.026-5.696 1.649-8.196 1.597-2.397 3.865-3.892 6.673-4.51 2.886-.67 5.745-.516 8.477.747 3.272 1.52 5.256 4.072 6.029 7.577.051.258.103.541.128.799.026.541.078 1.108.103 1.65zm-18.138-.025c.026.438.051.876.103 1.288.258 1.83 1.082 3.35 2.628 4.433 1.469 1.031 3.118 1.315 4.87 1.031 2.112-.309 3.684-1.443 4.637-3.35.876-1.701.954-3.531.516-5.361-.413-1.83-1.469-3.222-3.144-4.124-1.21-.67-2.525-.85-3.89-.696-1.7.155-3.118.902-4.226 2.217-1.056 1.288-1.443 2.86-1.494 4.562z"/>
    </g>
</svg>
