<svg xmlns="http://www.w3.org/2000/svg" width="90" height="90" viewBox="0 0 90 90">
    <g fill="none" fill-rule="nonzero">
        <path fill="#AEAEAE" d="M.022.022h89.956v89.956H.022V.022zM37.566 67.92H37.4c-1.964-.084-3.918-.247-5.837-.688-1.355-.313-2.674-.737-3.918-1.368-.648-.33-1.116-.812-1.385-1.495-.715-1.8-1.024-3.697-1.028-5.603-.031-13.977-.018-27.953-.018-41.934v-.309H20.1v.34c0 12.957 0 25.91-.004 38.867 0 1.73 0 3.455.211 5.175.181 1.474.406 2.939.852 4.36.904 2.893 2.748 4.95 5.545 6.123 1.46.613 3.005.9 4.567 1.116 2.395.335 4.808.516 7.226.565 3.825.08 7.641-.062 11.435-.61 1.253-.18 2.475-.462 3.653-.96 3.058-1.29 5.065-3.49 5.93-6.711.573-2.127.811-4.302.838-6.494.04-3.142.009-6.278.009-9.42v-.317c.322 0 .622.018.917-.005.94-.07 1.875-.158 2.81-.238 1.037-.088 2.048-.282 3.027-.648.49-.186.98-.353 1.474-.525 1.019-.362 1.959-.865 2.797-1.558 1.628-1.34 2.63-3.08 3.185-5.09.613-2.22.812-4.492.874-6.782.057-2.175.022-4.35-.208-6.52-.15-1.443-.388-2.864-.798-4.258-.649-2.201-1.906-3.917-3.936-5.038-1.023-.565-2.117-.94-3.255-1.2-2.171-.494-4.377-.75-6.592-.865a155.236 155.236 0 0 0-7.16-.242c-5.22-.036-10.443-.01-15.662-.01h-.278c.01 17.458.01 34.885.01 52.342z"/>
        <path fill="#FFF" d="M37.566 67.92V15.581h.278c5.22 0 10.443-.026 15.662.01 2.387.017 4.778.114 7.16.242 2.215.119 4.42.37 6.591.865 1.134.26 2.228.635 3.256 1.2 2.03 1.116 3.287 2.836 3.936 5.038.41 1.394.648 2.814.798 4.257.23 2.17.265 4.346.207 6.52-.061 2.29-.26 4.562-.873 6.782-.556 2.011-1.557 3.75-3.185 5.09a9.223 9.223 0 0 1-2.797 1.558c-.49.172-.984.344-1.474.525-.975.366-1.99.56-3.026.649-.936.08-1.875.167-2.81.238-.296.022-.6.004-.918.004v.318c0 3.141.03 6.278-.01 9.42-.026 2.192-.264 4.367-.837 6.493-.87 3.22-2.877 5.418-5.93 6.71-1.173.495-2.4.781-3.653.962-3.794.543-7.61.684-11.435.61a60.947 60.947 0 0 1-7.227-.566c-1.557-.216-3.105-.507-4.566-1.116-2.801-1.173-4.64-3.23-5.545-6.123-.446-1.42-.67-2.886-.852-4.36-.212-1.72-.212-3.445-.212-5.174.005-12.958.005-25.91.005-38.868v-.34h5.113v.31c0 13.976-.013 27.952.018 41.933.004 1.91.313 3.803 1.028 5.603.273.684.736 1.165 1.385 1.496 1.244.63 2.563 1.058 3.918 1.367 1.919.441 3.873.605 5.836.689.04 0 .08-.005.16-.005zm17.678-47.136H42.693v22.588h12.551V20.784zM42.688 67.928h.186c2.25-.075 4.482-.3 6.675-.852 1.275-.322 2.527-.692 3.666-1.394.551-.34.909-.776 1.12-1.376.614-1.752.874-3.574.905-5.413.061-3.353.017-6.706.017-10.06v-.202H42.688v19.297zm17.696-24.543c.088 0 .167.005.247 0 .882-.04 1.765-.057 2.643-.132a13.72 13.72 0 0 0 3.436-.728c1.27-.446 2.136-1.284 2.555-2.546.26-.776.476-1.575.63-2.378.287-1.473.358-2.973.38-4.473.035-2.307.004-4.615-.375-6.904-.172-1.037-.472-2.03-1.028-2.934-.251-.41-.551-.803-.993-1.01-.679-.323-1.367-.658-2.082-.883-1.734-.547-3.534-.635-5.338-.626-.027 0-.053.017-.075.026v22.588z"/>
        <path fill="#AEAEAE" d="M55.244 20.784v22.588H42.693V20.784h12.551zM42.688 67.928V48.63h12.57v.203c0 3.353.043 6.706-.018 10.059-.036 1.835-.291 3.657-.905 5.413-.211.6-.569 1.037-1.12 1.376-1.139.702-2.391 1.072-3.666 1.394-2.189.556-4.425.777-6.675.852h-.186zM60.384 43.385V20.797c.026-.009.048-.026.075-.026 1.804-.01 3.604.079 5.338.626.715.225 1.403.56 2.082.882.442.212.737.6.993 1.01.556.905.856 1.898 1.028 2.935.38 2.285.406 4.592.375 6.904-.022 1.5-.093 3-.38 4.473-.154.803-.37 1.602-.63 2.378-.42 1.262-1.289 2.1-2.555 2.546a13.919 13.919 0 0 1-3.436.728c-.878.075-1.76.093-2.643.132h-.247z"/>
    </g>
</svg>
