<svg xmlns="http://www.w3.org/2000/svg" width="47" height="54" viewBox="0 0 47 54">
    <g fill="#FFF" fill-rule="nonzero">
        <path d="M23.316 54c-1.624-.507-2.969-1.55-4.439-2.369-1.924-1.072-3.81-2.212-5.686-3.304 8.897-4.308 14.11-11.239 14.12-21.346 0-10.118-5.262-16.99-14.178-21.27.793-.467 1.615-.954 2.447-1.432 2.205-1.287 4.429-2.563 6.624-3.86.358-.214.774-.205 1.112-.41h.29c1.19.069 2.06.849 3.027 1.404 6.228 3.597 12.437 7.243 18.675 10.85.135.077.27.175.415.253.89.477 1.248 1.237 1.248 2.241-.02 4.124-.01 8.247-.01 12.37 0 3.996-.019 7.992.01 11.98.01 1.12-.397 1.91-1.373 2.465-3.714 2.125-7.398 4.299-11.093 6.443-3.249 1.891-6.508 3.782-9.748 5.683-.367.214-.773.166-1.15.292-.097.01-.194.01-.29.01z"/>
        <path d="M.01 27.049c0-3.607.01-7.213-.01-10.81 0-.39.068-.526.484-.517 1.547.04 3.094-.048 4.642.05 4.7.282 7.997 2.709 9.796 7.037 2.718 6.52-1.257 13.938-8.123 15.38-.764.157-1.528.196-2.302.206-1.335.01-2.679-.01-4.013.01-.368.01-.484-.079-.484-.478.02-3.636.01-7.262.01-10.878z"/>
        <path d="M5.493 43.785c9.284-.595 15.957-8.402 15.715-17.185-.242-8.84-6.934-15.693-15.957-16.278.522-.302.88-.662 1.47-.565 7.157 1.16 12.098 5.117 14.39 12.067 3.269 9.942-3.365 20.762-13.587 22.438-.735.108-1.431.156-2.031-.477z"/>
    </g>
</svg>
